<svg width="24" height="24" viewBox="0 0 24 24" xmlns="http://www.w3.org/2000/svg">
  <rect width="24" height="24" rx="12" fill="#5533EE"/>

  <path fill="white" d="M12.15 19.15c-1.37 0-2.01-.2-3.12-1.01-.7.9-2.92 1.61-3.02.4 0-.91-.2-1.68-.43-2.52C5.31 14.99 5 13.84 5 12.17 5 8.19 8.26 5.19 12.11 5.19 15.97 5.19 19 8.33 19 12.21c.01 3.81-3.05 6.91-6.85 6.94zm.06-10.52c-1.88-.1-3.34 1.2-3.67 3.25-.27 1.7.2 3.77.61 3.87.19.05.67-.35.98-.65.5.35 1.09.56 1.7.61 1.95.09 3.61-1.4 3.74-3.35.07-1.96-1.42-3.62-3.36-3.73z"/>
</svg>