<svg width="44" height="44" viewBox="0 0 44 44" fill="none" xmlns="http://www.w3.org/2000/svg">
    <path
        d="M27.5 22H18.3333M27.5 14.6667H18.3333M34.8333 31.1667V9.16667C34.8333 8.19421 34.447 7.26158 33.7594 6.57394C33.0717 5.88631 32.1391 5.5 31.1666 5.5H7.33329M7.33329 5.5C8.30575 5.5 9.23838 5.88631 9.92602 6.57394C10.6137 7.26158 11 8.19421 11 9.16667V34.8333C11 35.8058 11.3863 36.7384 12.0739 37.4261C12.7615 38.1137 13.6942 38.5 14.6666 38.5M7.33329 5.5C6.36083 5.5 5.4282 5.88631 4.74057 6.57394C4.05293 7.26158 3.66663 8.19421 3.66663 9.16667V12.8333C3.66663 13.3196 3.85978 13.7859 4.2036 14.1297C4.54741 14.4735 5.01373 14.6667 5.49996 14.6667H11M14.6666 38.5H36.6666C37.6391 38.5 38.5717 38.1137 39.2594 37.4261C39.947 36.7384 40.3333 35.8058 40.3333 34.8333V33C40.3333 32.5138 40.1401 32.0475 39.7963 31.7036C39.4525 31.3598 38.9862 31.1667 38.5 31.1667H20.1666C19.6804 31.1667 19.2141 31.3598 18.8703 31.7036C18.5264 32.0475 18.3333 32.5138 18.3333 33V34.8333C18.3333 35.8058 17.947 36.7384 17.2594 37.4261C16.5717 38.1137 15.6391 38.5 14.6666 38.5Z"
        stroke="currentColor" stroke-width="3" stroke-linecap="round" stroke-linejoin="round" />
</svg>