<svg width="225" height="236" viewBox="0 0 225 236" fill="none" xmlns="http://www.w3.org/2000/svg">
<path d="M224.707 145.407C225.098 145.016 225.098 144.383 224.707 143.992L218.343 137.628C217.953 137.238 217.319 137.238 216.929 137.628C216.538 138.019 216.538 138.652 216.929 139.043L222.586 144.699L216.929 150.356C216.538 150.747 216.538 151.38 216.929 151.771C217.319 152.161 217.953 152.161 218.343 151.771L224.707 145.407ZM42.4702 1V0H25V1V2H42.4702V1ZM1 25H0V211H1H2V25H1ZM25 235V236H175.222V235V234H25V235ZM199.222 211H200.222V168.699H199.222H198.222V211H199.222ZM223.222 144.699V145.699H224V144.699V143.699H223.222V144.699ZM199.222 168.699H200.222C200.222 155.997 210.52 145.699 223.222 145.699V144.699V143.699C209.415 143.699 198.222 154.892 198.222 168.699H199.222ZM175.222 235V236C189.029 236 200.222 224.807 200.222 211H199.222H198.222C198.222 223.703 187.925 234 175.222 234V235ZM1 211H0C0 224.807 11.1929 236 25 236V235V234C12.2975 234 2 223.703 2 211H1ZM25 1V0C11.1929 0 0 11.1929 0 25H1H2C2 12.2975 12.2975 2 25 2V1Z" fill="#3B82F6"/>
</svg>
