<svg width="24" height="24" viewBox="0 0 24 24" fill="none" xmlns="http://www.w3.org/2000/svg">
    <circle cx="12" cy="12" r="12" fill="#7294C7" />
    <path
        d="M17.8837 15.0695C17.8837 15.0197 17.8339 15.0197 17.8339 14.9699C17.6347 14.5714 17.1863 14.0733 16.5886 13.5253C16.2897 13.2763 16.1402 13.077 16.0406 12.9774C15.8912 12.7781 15.8912 12.6287 15.941 12.4294C15.9908 12.28 16.1901 12.0309 16.5388 11.5826C16.738 11.3335 16.8376 11.1841 16.9871 11.0346C17.7343 10.0384 18.083 9.39077 17.9834 9.09189L17.9335 9.04208C17.8837 8.99227 17.8339 8.94246 17.7343 8.94246C17.6347 8.89264 17.4852 8.89264 17.3358 8.94246H15.4429C15.393 8.94246 15.393 8.94246 15.2934 8.94246C15.2436 8.94246 15.1938 8.94246 15.1938 8.94246H15.144H15.0942L15.0443 8.99227C14.9945 9.04208 14.9945 9.04208 14.9945 9.09189C14.7953 9.63984 14.5462 10.0882 14.2971 10.5863C14.1477 10.8354 13.9983 11.0844 13.8488 11.2837C13.6994 11.483 13.5997 11.6324 13.5001 11.732C13.4005 11.8317 13.3009 11.8815 13.251 11.9811C13.2012 12.0309 13.1016 12.0807 13.1016 12.0309C13.0518 12.0309 13.002 12.0309 13.002 11.9811C12.9522 11.9313 12.9024 11.8815 12.8525 11.8316C12.8027 11.7818 12.8027 11.6822 12.7529 11.5826C12.7529 11.483 12.7529 11.3833 12.7529 11.3335C12.7529 11.2837 12.7529 11.1343 12.7529 11.0346C12.7529 10.8852 12.7529 10.7856 12.7529 10.7357C12.7529 10.5863 12.7529 10.3871 12.7529 10.1878C12.7529 9.98855 12.7529 9.8391 12.7529 9.73947C12.7529 9.63984 12.7529 9.49041 12.7529 9.39078C12.7529 9.24134 12.7529 9.14171 12.7529 9.09189C12.7529 9.04208 12.7031 8.94245 12.7031 8.89264C12.6533 8.84283 12.6035 8.79301 12.5537 8.7432C12.5038 8.69338 12.4042 8.69339 12.3544 8.64357C12.1053 8.59376 11.8065 8.54395 11.4578 8.54395C10.6607 8.54395 10.1128 8.59376 9.91353 8.69339C9.8139 8.7432 9.71428 8.79301 9.66446 8.89264C9.56484 8.99227 9.56483 9.04208 9.61465 9.04208C9.86371 9.0919 10.063 9.19152 10.1626 9.34096L10.2124 9.44059C10.2622 9.49041 10.2622 9.59003 10.312 9.73947C10.3618 9.88891 10.3619 10.0384 10.3619 10.2376C10.3619 10.5365 10.3619 10.8354 10.3619 11.0346C10.3619 11.2837 10.312 11.4331 10.312 11.5826C10.312 11.732 10.2622 11.8317 10.2124 11.8815C10.1626 11.9811 10.1626 12.0309 10.1128 12.0309C10.1128 12.0309 10.1128 12.0807 10.063 12.0807C10.0132 12.0807 9.96334 12.1305 9.86371 12.1305C9.8139 12.1305 9.71428 12.0807 9.66446 12.0309C9.56484 11.9811 9.46521 11.8815 9.41539 11.7818C9.31577 11.6822 9.21614 11.5328 9.11651 11.3335C9.01688 11.1343 8.86743 10.935 8.76781 10.6361L8.66819 10.4369C8.61837 10.3372 8.51875 10.138 8.41912 9.88892C8.31949 9.63985 8.21986 9.44059 8.12023 9.19153C8.07042 9.0919 8.02061 9.04208 7.9708 8.99227H7.92098C7.92098 8.99227 7.87116 8.94246 7.82135 8.94246C7.77153 8.94246 7.72173 8.89264 7.67191 8.89264H5.87861C5.67936 8.89264 5.57973 8.94245 5.52992 8.99227L5.4801 9.04208C5.4801 9.04208 5.4801 9.0919 5.4801 9.14171C5.4801 9.19152 5.48011 9.24133 5.52992 9.34096C5.77899 9.93873 6.07787 10.5365 6.37675 11.1343C6.67563 11.6822 6.97452 12.1803 7.17377 12.529C7.42284 12.8777 7.6221 13.2264 7.87116 13.5253C8.12023 13.8242 8.26967 14.0235 8.31949 14.1231C8.41911 14.2227 8.46892 14.2725 8.51874 14.3223L8.66819 14.4718C8.76782 14.5714 8.91725 14.7208 9.11651 14.8703C9.31576 15.0197 9.56483 15.1692 9.8139 15.3186C10.063 15.4681 10.3619 15.5677 10.6607 15.6673C11.0094 15.7669 11.3083 15.8168 11.6072 15.7669H12.3544C12.5038 15.7669 12.6035 15.7171 12.7031 15.6175L12.7529 15.5677C12.7529 15.5179 12.8027 15.5179 12.8027 15.4681C12.8027 15.4182 12.8027 15.3684 12.8027 15.2688C12.8027 15.0695 12.8027 14.9201 12.8525 14.7707C12.9024 14.6212 12.9024 14.5216 12.9522 14.422C13.002 14.3223 13.0518 14.2725 13.1016 14.2227C13.1514 14.1729 13.2012 14.1231 13.2012 14.1231H13.251C13.3507 14.0733 13.5001 14.1231 13.5997 14.2227C13.7492 14.3223 13.8986 14.4718 13.9983 14.6212C14.0979 14.7707 14.2473 14.9201 14.4466 15.1194C14.6458 15.3186 14.7953 15.4681 14.8949 15.5179L15.0443 15.6175C15.144 15.6673 15.2436 15.7171 15.393 15.7669C15.5425 15.8168 15.6421 15.8167 15.7417 15.8167L17.4354 15.7669C17.5849 15.7669 17.7343 15.7171 17.8339 15.6673C17.9335 15.6175 17.9834 15.5677 17.9834 15.4681C17.9834 15.4182 17.9834 15.3186 17.9834 15.2688C17.8837 15.1692 17.8837 15.1194 17.8837 15.0695Z"
        fill="white" />
</svg>