<svg width="24" height="24" viewBox="0 0 24 24" fill="none" xmlns="http://www.w3.org/2000/svg">
    <circle cx="12" cy="12" r="12" fill="#F40000" />
    <path
        d="M17.2279 11.3483C17.2279 11.1155 17.1891 10.844 17.1891 10.5337C17.1503 10.2234 17.1115 9.91312 17.0727 9.6416C16.9951 9.3313 16.8788 9.09857 16.646 8.90463C16.4521 8.71069 16.1806 8.59433 15.9091 8.55554C15.0169 8.43918 13.6982 8.40039 11.9139 8.40039C10.1297 8.40039 8.77209 8.43918 7.91876 8.55554C7.64725 8.59433 7.37573 8.71069 7.18179 8.90463C6.98785 9.09857 6.8327 9.3313 6.75512 9.6416C6.67755 9.91312 6.63877 10.1846 6.63877 10.5337C6.59998 10.844 6.59998 11.1155 6.59998 11.3483C6.59998 11.581 6.59998 11.8525 6.59998 12.2404C6.59998 12.6283 6.59998 12.9386 6.59998 13.1325C6.59998 13.3652 6.63877 13.6368 6.63877 13.9471C6.67755 14.2574 6.71634 14.5677 6.75512 14.8392C6.8327 15.1495 6.94907 15.3822 7.18179 15.5761C7.37573 15.7701 7.64725 15.8864 7.91876 15.9252C8.81088 16.0416 10.1297 16.0804 11.9139 16.0804C13.6982 16.0804 15.0557 16.0416 15.9091 15.9252C16.1806 15.8864 16.4521 15.7701 16.646 15.5761C16.84 15.3822 16.9951 15.1495 17.0727 14.8392C17.1503 14.5677 17.1891 14.2962 17.1891 13.9471C17.2279 13.6368 17.2279 13.3652 17.2279 13.1325C17.2279 12.8998 17.2279 12.6283 17.2279 12.2404C17.2279 11.8525 17.2279 11.5422 17.2279 11.3483ZM13.9697 12.5507L10.9054 14.4513C10.8666 14.4901 10.7891 14.5289 10.7115 14.5289C10.6339 14.5289 10.5951 14.5289 10.5176 14.4901C10.4012 14.4125 10.3236 14.2962 10.3236 14.141V10.301C10.3236 10.1458 10.4012 10.0295 10.5176 9.95191C10.6339 9.87433 10.7891 9.87433 10.9054 9.95191L13.9697 11.8525C14.086 11.9301 14.1636 12.0465 14.1636 12.1628C14.1636 12.2792 14.086 12.4731 13.9697 12.5507Z"
        fill="white" />
</svg>