<svg width="44" height="44" viewBox="0 0 44 44" fill="none" xmlns="http://www.w3.org/2000/svg">
    <path
        d="M16.665 16.4998C17.096 15.2746 17.9467 14.2414 19.0665 13.5832C20.1863 12.9251 21.5029 12.6846 22.7831 12.9041C24.0633 13.1237 25.2245 13.7893 26.0609 14.783C26.8974 15.7766 27.3552 17.0343 27.3533 18.3332C27.3533 21.9998 21.8533 23.8332 21.8533 23.8332M22 31.1665H22.0183M40.3333 21.9998C40.3333 32.1251 32.1252 40.3332 22 40.3332C11.8747 40.3332 3.66663 32.1251 3.66663 21.9998C3.66663 11.8746 11.8747 3.6665 22 3.6665C32.1252 3.6665 40.3333 11.8746 40.3333 21.9998Z"
        stroke="currentColor" stroke-width="3" stroke-linecap="round" stroke-linejoin="round" />
</svg>