<svg width="44" height="44" viewBox="0 0 44 44" fill="none" xmlns="http://www.w3.org/2000/svg">
    <path
        d="M25.1972 32.5158C24.6469 34.3356 23.6343 35.9817 22.2582 37.2935C20.8821 38.6053 19.1895 39.538 17.3455 40.0007C15.5015 40.4635 13.569 40.4404 11.7366 39.9337C9.90418 39.427 8.23437 38.454 6.89004 37.1097C5.54571 35.7654 4.57275 34.0955 4.06606 32.2631C3.55938 30.4307 3.53627 28.4983 3.99899 26.6543C4.46171 24.8103 5.39446 23.1177 6.70626 21.7416C8.01806 20.3655 9.66412 19.3529 11.4839 18.8025M27.4999 10.9998H29.3332V18.3332M11.2456 27.0745L12.8332 26.1578L16.4999 32.5085M40.3332 14.6665C40.3332 20.7416 35.4084 25.6665 29.3332 25.6665C23.2581 25.6665 18.3332 20.7416 18.3332 14.6665C18.3332 8.59137 23.2581 3.6665 29.3332 3.6665C35.4084 3.6665 40.3332 8.59137 40.3332 14.6665Z"
        stroke="currentColor" stroke-width="3" stroke-linecap="round" stroke-linejoin="round" />
</svg>