<svg width="24" height="24" viewBox="0 0 24 24" fill="none" xmlns="http://www.w3.org/2000/svg">
    <rect width="24" height="24" rx="12" fill="#84CC16" />
    <path
        d="M12.8816 14.1984C12.981 14.244 13.093 14.2544 13.1991 14.2279C13.3052 14.2014 13.3992 14.1396 13.4654 14.0525L13.6363 13.8288C13.7259 13.7092 13.8422 13.6122 13.9758 13.5454C14.1095 13.4785 14.2568 13.4437 14.4062 13.4437H15.85C16.1053 13.4437 16.3501 13.5452 16.5306 13.7257C16.7111 13.9062 16.8125 14.151 16.8125 14.4062V15.85C16.8125 16.1053 16.7111 16.3501 16.5306 16.5306C16.3501 16.7111 16.1053 16.8125 15.85 16.8125C13.5526 16.8125 11.3492 15.8998 9.72469 14.2753C8.10015 12.6508 7.1875 10.4474 7.1875 8.15C7.1875 7.89473 7.28891 7.64991 7.46941 7.46941C7.64991 7.28891 7.89473 7.1875 8.15 7.1875H9.59375C9.84902 7.1875 10.0938 7.28891 10.2743 7.46941C10.4548 7.64991 10.5563 7.89473 10.5563 8.15V9.59375C10.5563 9.74317 10.5215 9.89054 10.4546 10.0242C10.3878 10.1578 10.2908 10.2741 10.1712 10.3638L9.94603 10.5327C9.85768 10.6001 9.7954 10.6961 9.76979 10.8043C9.74417 10.9124 9.75679 11.0261 9.8055 11.1261C10.4632 12.4619 11.5449 13.5423 12.8816 14.1984Z"
        fill="white" stroke="white" stroke-width="0.802083" stroke-linecap="round"
        stroke-linejoin="round" />
</svg>