<svg width="16" height="16" viewBox="0 0 16 16" fill="none" xmlns="http://www.w3.org/2000/svg">
    <path
        d="M8.00004 11.3333V14.6667M6.00004 7.17333C5.99991 7.42138 5.93058 7.66448 5.79985 7.8753C5.66913 8.08611 5.48218 8.25628 5.26004 8.36666L4.07337 8.96666C3.85123 9.07705 3.66429 9.24721 3.53356 9.45802C3.40283 9.66884 3.33351 9.91194 3.33337 10.16V10.6667C3.33337 10.8435 3.40361 11.013 3.52864 11.1381C3.65366 11.2631 3.82323 11.3333 4.00004 11.3333H12C12.1769 11.3333 12.3464 11.2631 12.4714 11.1381C12.5965 11.013 12.6667 10.8435 12.6667 10.6667V10.16C12.6666 9.91194 12.5972 9.66884 12.4665 9.45802C12.3358 9.24721 12.1488 9.07705 11.9267 8.96666L10.74 8.36666C10.5179 8.25628 10.331 8.08611 10.2002 7.8753C10.0695 7.66448 10.0002 7.42138 10 7.17333V4.66666C10 4.48985 10.0703 4.32028 10.1953 4.19526C10.3203 4.07023 10.4899 3.99999 10.6667 3.99999C11.0203 3.99999 11.3595 3.85952 11.6095 3.60947C11.8596 3.35942 12 3.02028 12 2.66666C12 2.31304 11.8596 1.9739 11.6095 1.72385C11.3595 1.4738 11.0203 1.33333 10.6667 1.33333H5.33337C4.97975 1.33333 4.64061 1.4738 4.39056 1.72385C4.14052 1.9739 4.00004 2.31304 4.00004 2.66666C4.00004 3.02028 4.14052 3.35942 4.39056 3.60947C4.64061 3.85952 4.97975 3.99999 5.33337 3.99999C5.51018 3.99999 5.67975 4.07023 5.80478 4.19526C5.9298 4.32028 6.00004 4.48985 6.00004 4.66666V7.17333Z"
        stroke="currentColor" stroke-width="1.5" stroke-linecap="round" stroke-linejoin="round" />
</svg>