<svg width="24" height="24" viewBox="0 0 24 24" fill="none" xmlns="http://www.w3.org/2000/svg">
    <circle cx="12" cy="12" r="12" fill="#2F89CE" />
    <path
        d="M5.61045 12.2246L8.3693 13.2534L9.44478 16.7136C9.49154 16.9474 9.77211 16.9942 9.95915 16.8539L11.5022 15.5914C11.6425 15.4511 11.8763 15.4511 12.0634 15.5914L14.8222 17.6021C15.0092 17.7423 15.2898 17.6488 15.3366 17.415L17.394 7.59539C17.4408 7.36159 17.207 7.12779 16.9732 7.22131L5.61045 11.6168C5.32988 11.7103 5.32988 12.1311 5.61045 12.2246ZM9.30451 12.739L14.7287 9.41903C14.8222 9.37227 14.9157 9.51256 14.8222 9.55932L10.38 13.721C10.2397 13.8613 10.0994 14.0483 10.0994 14.2821L9.95915 15.4043C9.95915 15.5446 9.72534 15.5914 9.67858 15.4043L9.11746 13.3469C8.97717 13.1131 9.07071 12.8325 9.30451 12.739Z"
        fill="white" />
</svg>