<svg width="24" height="24" viewBox="0 0 24 24" fill="none" xmlns="http://www.w3.org/2000/svg">
    <path
        d="M9.99997 15.0001H14M14.817 10.9951L13.846 9.54507L14.88 8.31307C15.158 7.9896 15.3253 7.58571 15.3575 7.16039C15.3897 6.73506 15.2851 6.31058 15.0589 5.94894C14.8328 5.5873 14.4969 5.30743 14.1004 5.15022C13.7039 4.993 13.2675 4.96667 12.855 5.07507L11.035 5.43907L9.90997 3.88507C9.68839 3.55582 9.37387 3.29993 9.00642 3.14997C8.63897 3.00001 8.23522 2.96276 7.84653 3.04296C7.45785 3.12316 7.10182 3.31719 6.82374 3.60035C6.54566 3.88351 6.35812 4.243 6.28497 4.63307L6.14097 6.55007L4.41597 6.97607C4.02302 7.09635 3.67666 7.33476 3.424 7.65886C3.17135 7.98296 3.02466 8.37703 3.0039 8.78745C2.98314 9.19787 3.08931 9.60473 3.30797 9.95267C3.52663 10.3006 3.84716 10.5728 4.22597 10.7321L4.88297 11.0021M18.822 10.9951L21.082 5.61507C21.1336 5.49215 21.1601 5.36014 21.1599 5.22683C21.1597 5.09351 21.1329 4.96158 21.081 4.83878C21.0291 4.71598 20.9532 4.60479 20.8577 4.51177C20.7622 4.41874 20.6491 4.34574 20.525 4.29707L16.954 2.90007C16.713 2.80594 16.4449 2.80888 16.206 2.90827C15.9671 3.00767 15.7761 3.19577 15.673 3.43307L14.749 5.55507M3.99997 12.0061C3.99918 11.8747 4.02427 11.7446 4.07379 11.6229C4.12332 11.5013 4.19631 11.3906 4.28862 11.2972C4.38092 11.2038 4.49072 11.1295 4.61174 11.0785C4.73277 11.0275 4.86265 11.0009 4.99397 11.0001H19C19.2652 11.0001 19.5195 11.1054 19.7071 11.293C19.8946 11.4805 20 11.7349 20 12.0001V19.0001C20 19.5305 19.7893 20.0392 19.4142 20.4143C19.0391 20.7894 18.5304 21.0001 18 21.0001H5.99997C5.46954 21.0001 4.96083 20.7894 4.58576 20.4143C4.21068 20.0392 3.99997 19.5305 3.99997 19.0001V12.0061Z"
        stroke="currentColor" stroke-width="2" stroke-linecap="round" stroke-linejoin="round" />
</svg>