<svg width="24" height="24" viewBox="0 0 24 24" fill="none" xmlns="http://www.w3.org/2000/svg">
    <path
        d="M13 6V11C13 11.2652 13.1054 11.5196 13.2929 11.7071C13.4804 11.8946 13.7348 12 14 12H20.102C20.2345 12 20.3657 12.0264 20.4879 12.0775C20.6101 12.1287 20.721 12.2036 20.814 12.298L21.712 13.208C21.8965 13.3951 22 13.6473 22 13.91V17C22 17.2652 21.8946 17.5196 21.7071 17.7071C21.5196 17.8946 21.2652 18 21 18H18M18 18C18 19.1046 17.1046 20 16 20C14.8954 20 14 19.1046 14 18M18 18C18 16.8954 17.1046 16 16 16C14.8954 16 14 16.8954 14 18M5 18H3C2.73478 18 2.48043 17.8946 2.29289 17.7071C2.10536 17.5196 2 17.2652 2 17V8C2 7.46957 2.21071 6.96086 2.58579 6.58579C2.96086 6.21071 3.46957 6 4 6H16C17.1 6 18.1 6.8 18.4 7.8L19.576 12M5 18C5 19.1046 5.89543 20 7 20C8.10457 20 9 19.1046 9 18M5 18C5 16.8954 5.89543 16 7 16C8.10457 16 9 16.8954 9 18M9 18H14"
        stroke="currentColor" stroke-width="2" stroke-linecap="round" stroke-linejoin="round" />
</svg>