<svg width="222" height="235" viewBox="0 0 222 235" fill="none" xmlns="http://www.w3.org/2000/svg">
    <path
        d="M221.707 144.792C222.098 144.402 222.098 143.769 221.707 143.378L215.343 137.014C214.953 136.624 214.319 136.624 213.929 137.014C213.538 137.405 213.538 138.038 213.929 138.428L219.586 144.085L213.929 149.742C213.538 150.133 213.538 150.766 213.929 151.156C214.319 151.547 214.953 151.547 215.343 151.156L221.707 144.792ZM41.9123 1V0H25V1V2H41.9123V1ZM1 25H0V210H1H2V25H1ZM25 234V235H172.556V234V233H25V234ZM196.556 210H197.556V168.085H196.556H195.556V210H196.556ZM220.556 144.085V145.085H221V144.085V143.085H220.556V144.085ZM196.556 168.085H197.556C197.556 155.383 207.853 145.085 220.556 145.085V144.085V143.085C206.748 143.085 195.556 154.278 195.556 168.085H196.556ZM172.556 234V235C186.363 235 197.556 223.807 197.556 210H196.556H195.556C195.556 222.703 185.258 233 172.556 233V234ZM1 210H0C0 223.807 11.1929 235 25 235V234V233C12.2975 233 2 222.703 2 210H1ZM25 1V0C11.1929 0 0 11.1929 0 25H1H2C2 12.2975 12.2975 2 25 2V1Z"
        fill="currentColor" />
</svg>