<svg width="372" height="187" viewBox="0 0 372 187" fill="none" xmlns="http://www.w3.org/2000/svg">
<path d="M310.774 178.293C310.384 178.683 310.384 179.317 310.774 179.707L317.138 186.071C317.529 186.462 318.162 186.462 318.553 186.071C318.943 185.681 318.943 185.047 318.553 184.657L312.896 179L318.553 173.343C318.943 172.953 318.943 172.319 318.553 171.929C318.162 171.538 317.529 171.538 317.138 171.929L310.774 178.293ZM78.4079 1V0H25V1V2H78.4079V1ZM1 25H0V119.127H1H2V25H1ZM25 143.127V144.127H353.064V143.127V142.127H25V143.127ZM353.064 179V178H311.482V179V180H353.064V179ZM371 161.064H370C370 170.417 362.417 178 353.064 178V179V180C363.522 180 372 171.522 372 161.064H371ZM353.064 143.127V144.127C362.417 144.127 370 151.71 370 161.064H371H372C372 150.605 363.522 142.127 353.064 142.127V143.127ZM1 119.127H0C0 132.934 11.1929 144.127 25 144.127V143.127V142.127C12.2975 142.127 2 131.83 2 119.127H1ZM25 1V0C11.1929 0 0 11.1929 0 25H1H2C2 12.2975 12.2974 2 25 2V1Z" fill="#3B82F6"/>
</svg>
