<svg width="421" height="206" viewBox="0 0 421 206" fill="none" xmlns="http://www.w3.org/2000/svg">
<path d="M420.707 126.984C421.098 126.593 421.098 125.96 420.707 125.569L414.343 119.205C413.953 118.815 413.319 118.815 412.929 119.205C412.538 119.596 412.538 120.229 412.929 120.62L418.586 126.276L412.929 131.933C412.538 132.324 412.538 132.957 412.929 133.348C413.319 133.738 413.953 133.738 414.343 133.348L420.707 126.984ZM78.9193 1V0H37V1V2H78.9193V1ZM1 37H0V169H1H2V37H1ZM37 205V206H337.444V205V204H37V205ZM373.444 169H374.444V162.276H373.444H372.444V169H373.444ZM409.444 126.276V127.276H420V126.276V125.276H409.444V126.276ZM373.444 162.276H374.444C374.444 142.946 390.115 127.276 409.444 127.276V126.276V125.276C389.01 125.276 372.444 141.842 372.444 162.276H373.444ZM337.444 205V206C357.879 206 374.444 189.435 374.444 169H373.444H372.444C372.444 188.33 356.774 204 337.444 204V205ZM1 169H0C0 189.435 16.5655 206 37 206V205V204C17.67 204 2 188.33 2 169H1ZM37 1V0C16.5655 0 0 16.5655 0 37H1H2C2 17.67 17.67 2 37 2V1Z" fill="#3B82F6"/>
</svg>
