<svg xmlns="http://www.w3.org/2000/svg" xmlns:xlink="http://www.w3.org/1999/xlink"><symbol fill="none" viewBox="0 0 24 24" id="aperture" xmlns="http://www.w3.org/2000/svg"><path d="m14.31 8 5.74 9.94M9.69 8h11.48M7.38 12l5.74-9.94M9.69 16 3.95 6.06M14.31 16H2.83m13.79-4-5.74 9.94M22 12c0 5.523-4.477 10-10 10S2 17.523 2 12 6.477 2 12 2s10 4.477 10 10Z" stroke="currentColor" stroke-width="2" stroke-linecap="round" stroke-linejoin="round"/></symbol><symbol fill="none" viewBox="0 0 24 24" id="bath" xmlns="http://www.w3.org/2000/svg"><path d="M10 4 8 6m9 13v2M2 12h20M7 19v2M9 5 7.621 3.62A2.121 2.121 0 0 0 4 5v12a2 2 0 0 0 2 2h12a2 2 0 0 0 2-2v-5" stroke="currentColor" stroke-width="2" stroke-linecap="round" stroke-linejoin="round"/></symbol><symbol fill="none" viewBox="0 0 24 24" id="book" xmlns="http://www.w3.org/2000/svg"><path d="M4 19.5v-15A2.5 2.5 0 0 1 6.5 2H19a1 1 0 0 1 1 1v18a1 1 0 0 1-1 1H6.5A2.5 2.5 0 0 1 4 19.5Zm0 0A2.5 2.5 0 0 1 6.5 17H20" stroke="currentColor" stroke-width="2" stroke-linecap="round" stroke-linejoin="round"/></symbol><symbol fill="none" viewBox="0 0 24 24" id="burger" xmlns="http://www.w3.org/2000/svg"><path d="M4 5h16M4 12h16M4 19h16" stroke="currentColor" stroke-width="2" stroke-linecap="round" stroke-linejoin="round"/></symbol><symbol fill="none" viewBox="0 0 24 24" id="calendar-days" xmlns="http://www.w3.org/2000/svg"><path d="M8 2v4m8-4v4M3 10h18M8 14h.01M12 14h.01M16 14h.01M8 18h.01M12 18h.01M16 18h.01M5 4h14a2 2 0 0 1 2 2v14a2 2 0 0 1-2 2H5a2 2 0 0 1-2-2V6a2 2 0 0 1 2-2Z" stroke="currentColor" stroke-width="2" stroke-linecap="round" stroke-linejoin="round"/></symbol><symbol fill="none" viewBox="0 0 24 24" id="check" xmlns="http://www.w3.org/2000/svg"><path d="m20.348 7.564-10.6 10.6a.5.5 0 0 1-.71 0l-5.39-5.39a.5.5 0 0 1 0-.71l.7-.7a.5.5 0 0 1 .71 0l4.33 4.33 9.55-9.55a.51.51 0 0 1 .71 0l.7.71a.5.5 0 0 1 0 .71Z" fill="currentColor"/></symbol><symbol fill="none" viewBox="0 0 44 44" id="circle-question" xmlns="http://www.w3.org/2000/svg"><path d="M16.665 16.5a5.5 5.5 0 0 1 10.688 1.833c0 3.667-5.5 5.5-5.5 5.5M22 31.167h.018M40.333 22c0 10.125-8.208 18.333-18.333 18.333-10.125 0-18.333-8.208-18.333-18.333C3.667 11.875 11.875 3.666 22 3.666c10.125 0 18.333 8.209 18.333 18.334Z" stroke="currentColor" stroke-width="3" stroke-linecap="round" stroke-linejoin="round"/></symbol><symbol fill="none" viewBox="0 0 24 24" id="clock" xmlns="http://www.w3.org/2000/svg"><path d="M12 6v6l4 2m6-2c0 5.523-4.477 10-10 10S2 17.523 2 12 6.477 2 12 2s10 4.477 10 10Z" stroke="currentColor" stroke-width="2" stroke-linecap="round" stroke-linejoin="round"/></symbol><symbol fill="none" viewBox="0 0 24 24" id="close" xmlns="http://www.w3.org/2000/svg"><path d="M18 6 6 18M6 6l12 12" stroke="currentColor" stroke-width="2" stroke-linecap="round" stroke-linejoin="round"/></symbol><symbol fill="none" viewBox="0 0 44 44" id="coins" xmlns="http://www.w3.org/2000/svg"><path d="M25.197 32.516a11 11 0 1 1-13.713-13.713M27.5 11h1.833v7.333m-18.087 8.742 1.587-.917 3.667 6.35m23.833-17.842c0 6.076-4.925 11-11 11s-11-4.924-11-11c0-6.075 4.925-11 11-11s11 4.925 11 11Z" stroke="currentColor" stroke-width="3" stroke-linecap="round" stroke-linejoin="round"/></symbol><symbol fill="none" viewBox="0 0 24 24" id="command" xmlns="http://www.w3.org/2000/svg"><path d="M15 6v12a3 3 0 1 0 3-3H6a3 3 0 1 0 3 3V6a3 3 0 1 0-3 3h12a3 3 0 1 0-3-3Z" stroke="currentColor" stroke-width="2" stroke-linecap="round" stroke-linejoin="round"/></symbol><symbol fill="none" viewBox="0 0 32 32" id="down" xmlns="http://www.w3.org/2000/svg"><path d="M23.513 11.573a.25.25 0 0 1 .353 0l.354.354a.25.25 0 0 1 0 .353l-7.647 7.647a.25.25 0 0 1-.353 0L8.573 12.28a.25.25 0 0 1 0-.353l.354-.354a.25.25 0 0 1 .353 0l7.117 7.116 7.116-7.116Z" fill="currentColor" stroke="currentColor"/></symbol><symbol fill="none" viewBox="0 0 24 24" id="droplet" xmlns="http://www.w3.org/2000/svg"><path d="M12 22a7 7 0 0 0 7-7c0-2-1-3.9-3-5.5s-3.5-4-4-6.5c-.5 2.5-2 4.9-4 6.5C6 11.1 5 13 5 15a7 7 0 0 0 7 7Z" stroke="currentColor" stroke-width="2" stroke-linecap="round" stroke-linejoin="round"/></symbol><symbol fill="none" viewBox="0 0 24 24" id="eye" xmlns="http://www.w3.org/2000/svg"><path d="M2.062 12.348a1 1 0 0 1 0-.696 10.75 10.75 0 0 1 19.876 0 1 1 0 0 1 0 .696 10.75 10.75 0 0 1-19.876 0Z" stroke="currentColor" stroke-width="2" stroke-linecap="round" stroke-linejoin="round"/><path d="M12 15a3 3 0 1 0 0-6 3 3 0 0 0 0 6Z" stroke="currentColor" stroke-width="2" stroke-linecap="round" stroke-linejoin="round"/></symbol><symbol fill="none" viewBox="0 0 48 46" id="favicon" xmlns="http://www.w3.org/2000/svg"><path fill="#863bff" d="M25.946 44.938c-.664.845-2.021.375-2.021-.698V33.937a2.26 2.26 0 0 0-2.262-2.262H10.287c-.92 0-1.456-1.04-.92-1.788l7.48-10.471c1.07-1.497 0-3.578-1.842-3.578H1.237c-.92 0-1.456-1.04-.92-1.788L10.013.474c.214-.297.556-.474.92-.474h28.894c.92 0 1.456 1.04.92 1.788l-7.48 10.471c-1.07 1.498 0 3.579 1.842 3.579h11.377c.943 0 1.473 1.088.89 1.83L25.947 44.94z" style="fill:color(display-p3 .5252 .23 1);fill-opacity:1"/><mask id="a" width="48" height="46" x="0" y="0" maskUnits="userSpaceOnUse" style="mask-type:alpha"><path fill="#000" d="M25.842 44.938c-.664.844-2.021.375-2.021-.698V33.937a2.26 2.26 0 0 0-2.262-2.262H10.183c-.92 0-1.456-1.04-.92-1.788l7.48-10.471c1.07-1.498 0-3.579-1.842-3.579H1.133c-.92 0-1.456-1.04-.92-1.787L9.91.473c.214-.297.556-.474.92-.474h28.894c.92 0 1.456 1.04.92 1.788l-7.48 10.471c-1.07 1.498 0 3.578 1.842 3.578h11.377c.943 0 1.473 1.088.89 1.832L25.843 44.94z" style="fill:#000;fill-opacity:1"/></mask><g mask="url(#a)"><g filter="url(#b)"><ellipse cx="5.508" cy="14.704" fill="#ede6ff" rx="5.508" ry="14.704" style="fill:color(display-p3 .9275 .9033 1);fill-opacity:1" transform="matrix(.00324 1 1 -.00324 -4.47 31.516)"/></g><g filter="url(#c)"><ellipse cx="10.399" cy="29.851" fill="#ede6ff" rx="10.399" ry="29.851" style="fill:color(display-p3 .9275 .9033 1);fill-opacity:1" transform="matrix(.00324 1 1 -.00324 -39.328 7.883)"/></g><g filter="url(#d)"><ellipse cx="5.508" cy="30.487" fill="#7e14ff" rx="5.508" ry="30.487" style="fill:color(display-p3 .4922 .0767 1);fill-opacity:1" transform="matrix(.00325 1 1 -.00325 -40.468 11.321)"/></g><g filter="url(#e)"><ellipse cx="5.508" cy="30.599" fill="#7e14ff" rx="5.508" ry="30.599" style="fill:color(display-p3 .4922 .0767 1);fill-opacity:1" transform="matrix(.00325 1 1 -.00325 -35.872 29.32)"/></g><g filter="url(#f)"><ellipse cx="5.508" cy="30.599" fill="#7e14ff" rx="5.508" ry="30.599" style="fill:color(display-p3 .4922 .0767 1);fill-opacity:1" transform="matrix(.00324 1 1 -.00324 -34.34 30.47)"/></g><g filter="url(#g)"><ellipse cx="14.072" cy="22.078" fill="#ede6ff" rx="14.072" ry="22.078" style="fill:color(display-p3 .9275 .9033 1);fill-opacity:1" transform="scale(1 -1) rotate(86.65 51.415 25.982)"/></g><g filter="url(#h)"><ellipse cx="3.47" cy="21.501" fill="#7e14ff" rx="3.47" ry="21.501" style="fill:color(display-p3 .4922 .0767 1);fill-opacity:1" transform="scale(-1 1) rotate(-89.009 -28.708 47.59)"/></g><g filter="url(#i)"><ellipse cx="3.47" cy="21.501" fill="#7e14ff" rx="3.47" ry="21.501" style="fill:color(display-p3 .4922 .0767 1);fill-opacity:1" transform="scale(-1 1) rotate(-89.009 -28.708 47.59)"/></g><g filter="url(#j)"><ellipse cx=".387" cy="8.972" fill="#7e14ff" rx="4.407" ry="29.108" style="fill:color(display-p3 .4922 .0767 1);fill-opacity:1" transform="rotate(39.51 .387 8.972)"/></g><g filter="url(#k)"><ellipse cx="47.523" cy="-6.092" fill="#7e14ff" rx="4.407" ry="29.108" style="fill:color(display-p3 .4922 .0767 1);fill-opacity:1" transform="rotate(37.892 47.523 -6.092)"/></g><g filter="url(#l)"><ellipse cx="41.412" cy="6.333" fill="#47bfff" rx="5.971" ry="9.665" style="fill:color(display-p3 .2799 .748 1);fill-opacity:1" transform="rotate(37.892 41.412 6.333)"/></g><g filter="url(#m)"><ellipse cx="-1.879" cy="38.332" fill="#7e14ff" rx="4.407" ry="29.108" style="fill:color(display-p3 .4922 .0767 1);fill-opacity:1" transform="rotate(37.892 -1.88 38.332)"/></g><g filter="url(#n)"><ellipse cx="-1.879" cy="38.332" fill="#7e14ff" rx="4.407" ry="29.108" style="fill:color(display-p3 .4922 .0767 1);fill-opacity:1" transform="rotate(37.892 -1.88 38.332)"/></g><g filter="url(#o)"><ellipse cx="35.651" cy="29.907" fill="#7e14ff" rx="4.407" ry="29.108" style="fill:color(display-p3 .4922 .0767 1);fill-opacity:1" transform="rotate(37.892 35.651 29.907)"/></g><g filter="url(#p)"><ellipse cx="38.418" cy="32.4" fill="#47bfff" rx="5.971" ry="15.297" style="fill:color(display-p3 .2799 .748 1);fill-opacity:1" transform="rotate(37.892 38.418 32.4)"/></g></g><defs><filter id="b" width="60.045" height="41.654" x="-19.77" y="16.149" color-interpolation-filters="sRGB" filterUnits="userSpaceOnUse"><feFlood flood-opacity="0" result="BackgroundImageFix"/><feBlend in="SourceGraphic" in2="BackgroundImageFix" result="shape"/><feGaussianBlur result="effect1_foregroundBlur_2002_17158" stdDeviation="7.659"/></filter><filter id="c" width="90.34" height="51.437" x="-54.613" y="-7.533" color-interpolation-filters="sRGB" filterUnits="userSpaceOnUse"><feFlood flood-opacity="0" result="BackgroundImageFix"/><feBlend in="SourceGraphic" in2="BackgroundImageFix" result="shape"/><feGaussianBlur result="effect1_foregroundBlur_2002_17158" stdDeviation="7.659"/></filter><filter id="d" width="79.355" height="29.4" x="-49.64" y="2.03" color-interpolation-filters="sRGB" filterUnits="userSpaceOnUse"><feFlood flood-opacity="0" result="BackgroundImageFix"/><feBlend in="SourceGraphic" in2="BackgroundImageFix" result="shape"/><feGaussianBlur result="effect1_foregroundBlur_2002_17158" stdDeviation="4.596"/></filter><filter id="e" width="79.579" height="29.4" x="-45.045" y="20.029" color-interpolation-filters="sRGB" filterUnits="userSpaceOnUse"><feFlood flood-opacity="0" result="BackgroundImageFix"/><feBlend in="SourceGraphic" in2="BackgroundImageFix" result="shape"/><feGaussianBlur result="effect1_foregroundBlur_2002_17158" stdDeviation="4.596"/></filter><filter id="f" width="79.579" height="29.4" x="-43.513" y="21.178" color-interpolation-filters="sRGB" filterUnits="userSpaceOnUse"><feFlood flood-opacity="0" result="BackgroundImageFix"/><feBlend in="SourceGraphic" in2="BackgroundImageFix" result="shape"/><feGaussianBlur result="effect1_foregroundBlur_2002_17158" stdDeviation="4.596"/></filter><filter id="g" width="74.749" height="58.852" x="15.756" y="-17.901" color-interpolation-filters="sRGB" filterUnits="userSpaceOnUse"><feFlood flood-opacity="0" result="BackgroundImageFix"/><feBlend in="SourceGraphic" in2="BackgroundImageFix" result="shape"/><feGaussianBlur result="effect1_foregroundBlur_2002_17158" stdDeviation="7.659"/></filter><filter id="h" width="61.377" height="25.362" x="23.548" y="2.284" color-interpolation-filters="sRGB" filterUnits="userSpaceOnUse"><feFlood flood-opacity="0" result="BackgroundImageFix"/><feBlend in="SourceGraphic" in2="BackgroundImageFix" result="shape"/><feGaussianBlur result="effect1_foregroundBlur_2002_17158" stdDeviation="4.596"/></filter><filter id="i" width="61.377" height="25.362" x="23.548" y="2.284" color-interpolation-filters="sRGB" filterUnits="userSpaceOnUse"><feFlood flood-opacity="0" result="BackgroundImageFix"/><feBlend in="SourceGraphic" in2="BackgroundImageFix" result="shape"/><feGaussianBlur result="effect1_foregroundBlur_2002_17158" stdDeviation="4.596"/></filter><filter id="j" width="56.045" height="63.649" x="-27.636" y="-22.853" color-interpolation-filters="sRGB" filterUnits="userSpaceOnUse"><feFlood flood-opacity="0" result="BackgroundImageFix"/><feBlend in="SourceGraphic" in2="BackgroundImageFix" result="shape"/><feGaussianBlur result="effect1_foregroundBlur_2002_17158" stdDeviation="4.596"/></filter><filter id="k" width="54.814" height="64.646" x="20.116" y="-38.415" color-interpolation-filters="sRGB" filterUnits="userSpaceOnUse"><feFlood flood-opacity="0" result="BackgroundImageFix"/><feBlend in="SourceGraphic" in2="BackgroundImageFix" result="shape"/><feGaussianBlur result="effect1_foregroundBlur_2002_17158" stdDeviation="4.596"/></filter><filter id="l" width="33.541" height="35.313" x="24.641" y="-11.323" color-interpolation-filters="sRGB" filterUnits="userSpaceOnUse"><feFlood flood-opacity="0" result="BackgroundImageFix"/><feBlend in="SourceGraphic" in2="BackgroundImageFix" result="shape"/><feGaussianBlur result="effect1_foregroundBlur_2002_17158" stdDeviation="4.596"/></filter><filter id="m" width="54.814" height="64.646" x="-29.286" y="6.009" color-interpolation-filters="sRGB" filterUnits="userSpaceOnUse"><feFlood flood-opacity="0" result="BackgroundImageFix"/><feBlend in="SourceGraphic" in2="BackgroundImageFix" result="shape"/><feGaussianBlur result="effect1_foregroundBlur_2002_17158" stdDeviation="4.596"/></filter><filter id="n" width="54.814" height="64.646" x="-29.286" y="6.009" color-interpolation-filters="sRGB" filterUnits="userSpaceOnUse"><feFlood flood-opacity="0" result="BackgroundImageFix"/><feBlend in="SourceGraphic" in2="BackgroundImageFix" result="shape"/><feGaussianBlur result="effect1_foregroundBlur_2002_17158" stdDeviation="4.596"/></filter><filter id="o" width="54.814" height="64.646" x="8.244" y="-2.416" color-interpolation-filters="sRGB" filterUnits="userSpaceOnUse"><feFlood flood-opacity="0" result="BackgroundImageFix"/><feBlend in="SourceGraphic" in2="BackgroundImageFix" result="shape"/><feGaussianBlur result="effect1_foregroundBlur_2002_17158" stdDeviation="4.596"/></filter><filter id="p" width="39.409" height="43.623" x="18.713" y="10.588" color-interpolation-filters="sRGB" filterUnits="userSpaceOnUse"><feFlood flood-opacity="0" result="BackgroundImageFix"/><feBlend in="SourceGraphic" in2="BackgroundImageFix" result="shape"/><feGaussianBlur result="effect1_foregroundBlur_2002_17158" stdDeviation="4.596"/></filter></defs></symbol><symbol fill="none" viewBox="0 0 24 24" id="house" xmlns="http://www.w3.org/2000/svg"><path d="M15 21v-8a1 1 0 0 0-1-1h-4a1 1 0 0 0-1 1v8M3 10a2 2 0 0 1 .709-1.528l7-6a2 2 0 0 1 2.582 0l7 6A2 2 0 0 1 21 10.001v9a2 2 0 0 1-2 2H5a2 2 0 0 1-2-2v-9Z" stroke="currentColor" stroke-width="2" stroke-linecap="round" stroke-linejoin="round"/></symbol><symbol fill="none" viewBox="0 0 22 22" id="ico-info" xmlns="http://www.w3.org/2000/svg"><path fill-rule="evenodd" clip-rule="evenodd" d="M21 11c0 5.523-4.477 10-10 10S1 16.523 1 11 5.477 1 11 1s10 4.477 10 10Zm-9-6v2h-2V5h2Zm0 12V9h-2v8h2Z" fill="currentColor"/><path d="M11 .5C16.799.5 21.5 5.201 21.5 11S16.799 21.5 11 21.5.5 16.799.5 11 5.201.5 11 .5Zm-.5 16h1v-7h-1v7Zm0-10h1v-1h-1v1Z" stroke="#000" stroke-opacity=".06"/></symbol><symbol fill="none" viewBox="0 0 32 12" id="left" xmlns="http://www.w3.org/2000/svg"><path d="m0 6 6 6 1-2-3.5-3.5h28v-2H4.2L7 1 6 0 0 6Z" fill="currentColor"/></symbol><symbol fill="none" viewBox="0 0 24 24" id="list" xmlns="http://www.w3.org/2000/svg"><path d="M3 5h.01M3 12h.01M3 19h.01M8 5h13M8 12h13M8 19h13" stroke="currentColor" stroke-width="2" stroke-linecap="round" stroke-linejoin="round"/></symbol><symbol fill="none" viewBox="0 0 16 16" id="mail" xmlns="http://www.w3.org/2000/svg"><path d="M14.667 4.667 8.673 8.485a1.333 1.333 0 0 1-1.34 0l-6-3.818m1.334-2h10.666c.737 0 1.334.597 1.334 1.333v8c0 .736-.597 1.333-1.334 1.333H2.667A1.333 1.333 0 0 1 1.333 12V4c0-.736.597-1.333 1.334-1.333Z" stroke="currentColor" stroke-width="1.5" stroke-linecap="round" stroke-linejoin="round"/></symbol><symbol fill="none" viewBox="0 0 24 24" id="map-pin" xmlns="http://www.w3.org/2000/svg"><path d="M20 10c0 4.993-5.539 10.193-7.399 11.799a1 1 0 0 1-1.202 0C9.539 20.193 4 14.993 4 10a8 8 0 1 1 16 0Z" stroke="currentColor" stroke-width="2" stroke-linecap="round" stroke-linejoin="round"/><path d="M12 13a3 3 0 1 0 0-6 3 3 0 0 0 0 6Z" stroke="currentColor" stroke-width="2" stroke-linecap="round" stroke-linejoin="round"/></symbol><symbol viewBox="0 0 24 24" id="max" xmlns="http://www.w3.org/2000/svg"><rect width="24" height="24" rx="12" fill="#53E"/><path fill="#fff" d="M12.15 19.15c-1.37 0-2.01-.2-3.12-1.01-.7.9-2.92 1.61-3.02.4 0-.91-.2-1.68-.43-2.52-.27-1.03-.58-2.18-.58-3.85 0-3.98 3.26-6.98 7.11-6.98 3.86 0 6.89 3.14 6.89 7.02.01 3.81-3.05 6.91-6.85 6.94zm.06-10.52c-1.88-.1-3.34 1.2-3.67 3.25-.27 1.7.2 3.77.61 3.87.19.05.67-.35.98-.65.5.35 1.09.56 1.7.61 1.95.09 3.61-1.4 3.74-3.35.07-1.96-1.42-3.62-3.36-3.73z"/></symbol><symbol fill="none" viewBox="0 0 24 24" id="phone-call" xmlns="http://www.w3.org/2000/svg"><rect width="24" height="24" rx="12" fill="#84CC16"/><path d="M12.882 14.198a.482.482 0 0 0 .583-.146l.171-.223a.961.961 0 0 1 .77-.385h1.444a.963.963 0 0 1 .963.962v1.444a.962.962 0 0 1-.963.963A8.663 8.663 0 0 1 7.188 8.15a.963.963 0 0 1 .962-.963h1.444a.962.962 0 0 1 .962.963v1.444a.962.962 0 0 1-.385.77l-.225.169a.48.48 0 0 0-.14.593 6.738 6.738 0 0 0 3.076 3.072Z" fill="#fff" stroke="#fff" stroke-width=".802" stroke-linecap="round" stroke-linejoin="round"/></symbol><symbol fill="none" viewBox="0 0 16 16" id="pin" xmlns="http://www.w3.org/2000/svg"><path d="M8 11.333v3.334M6 7.173a1.333 1.333 0 0 1-.74 1.194l-1.187.6a1.333 1.333 0 0 0-.74 1.193v.507a.667.667 0 0 0 .667.666h8a.667.667 0 0 0 .667-.666v-.507a1.333 1.333 0 0 0-.74-1.193l-1.187-.6A1.334 1.334 0 0 1 10 7.173V4.667A.667.667 0 0 1 10.667 4a1.333 1.333 0 1 0 0-2.667H5.333a1.333 1.333 0 1 0 0 2.667.667.667 0 0 1 .667.667v2.506Z" stroke="currentColor" stroke-width="1.5" stroke-linecap="round" stroke-linejoin="round"/></symbol><symbol fill="none" viewBox="0 0 31 12" id="right" xmlns="http://www.w3.org/2000/svg"><path d="m31 6-6 6-1-2 2.5-2.5H0v-2h27.6L24 1l1-1 6 6Z" fill="currentColor"/></symbol><symbol fill="none" viewBox="0 0 24 24" id="ruler-dimension" xmlns="http://www.w3.org/2000/svg"><path d="M10 15v-3m4 3v-3m4 3v-3M2 8V4m20 2H2m20 2V4M6 15v-3m-2 0h16a2 2 0 0 1 2 2v4a2 2 0 0 1-2 2H4a2 2 0 0 1-2-2v-4a2 2 0 0 1 2-2Z" stroke="currentColor" stroke-width="2" stroke-linecap="round" stroke-linejoin="round"/></symbol><symbol fill="none" viewBox="0 0 24 24" id="scale" xmlns="http://www.w3.org/2000/svg"><path d="M12 3v18m7-13 3 8a5 5 0 0 1-6 0l3-8Zm0 0V7M3 7h1a17 17 0 0 0 8-2 17 17 0 0 0 8 2h1M5 8l3 8a5 5 0 0 1-6 0l3-8Zm0 0V7m2 14h10" stroke="currentColor" stroke-width="2" stroke-linecap="round" stroke-linejoin="round"/></symbol><symbol fill="none" viewBox="0 0 44 44" id="scroll-text" xmlns="http://www.w3.org/2000/svg"><path d="M27.5 22h-9.167m9.167-7.333h-9.167m16.5 16.5v-22A3.667 3.667 0 0 0 31.167 5.5H7.333m0 0A3.667 3.667 0 0 1 11 9.167v25.666a3.667 3.667 0 0 0 3.667 3.667m-7.334-33a3.667 3.667 0 0 0-3.666 3.667v3.666A1.833 1.833 0 0 0 5.5 14.667H11M14.667 38.5h22a3.667 3.667 0 0 0 3.666-3.667V33a1.834 1.834 0 0 0-1.833-1.833H20.167A1.833 1.833 0 0 0 18.333 33v1.833a3.667 3.667 0 0 1-3.666 3.667Z" stroke="currentColor" stroke-width="3" stroke-linecap="round" stroke-linejoin="round"/></symbol><symbol fill="none" viewBox="0 0 24 24" id="shield-check" xmlns="http://www.w3.org/2000/svg"><path d="m9 12 2 2 4-4m5 3c0 5-3.5 7.5-7.66 8.95a1 1 0 0 1-.67-.01C7.5 20.5 4 18 4 13V6a1 1 0 0 1 1-1c2 0 4.5-1.2 6.24-2.72a1.17 1.17 0 0 1 1.52 0C14.51 3.81 17 5 19 5a1 1 0 0 1 1 1v7Z" stroke="currentColor" stroke-width="2" stroke-linecap="round" stroke-linejoin="round"/></symbol><symbol fill="none" viewBox="0 0 24 24" id="sparkless" xmlns="http://www.w3.org/2000/svg"><g clip-path="url(#a)"><path d="M20 2v4m2-2h-4m-6.983-1.186a1 1 0 0 1 1.966 0l1.051 5.558a2 2 0 0 0 1.594 1.594l5.558 1.051a1 1 0 0 1 0 1.966l-5.558 1.051a1.999 1.999 0 0 0-1.594 1.594l-1.051 5.558a1 1 0 0 1-1.966 0l-1.051-5.558a2 2 0 0 0-1.594-1.594l-5.558-1.051a1 1 0 0 1 0-1.966l5.558-1.051a2 2 0 0 0 1.594-1.594l1.051-5.558ZM6 20a2 2 0 1 1-4 0 2 2 0 0 1 4 0Z" stroke="currentColor" stroke-width="2" stroke-linecap="round" stroke-linejoin="round"/></g><defs><clipPath id="a"><path fill="#fff" d="M0 0h24v24H0z"/></clipPath></defs></symbol><symbol fill="none" viewBox="0 0 24 24" id="telegram" xmlns="http://www.w3.org/2000/svg"><circle cx="12" cy="12" r="12" fill="#2F89CE"/><path d="m5.61 12.225 2.76 1.028 1.075 3.46c.047.234.327.281.514.14l1.543-1.262c.14-.14.374-.14.561 0l2.76 2.011c.186.14.467.047.514-.187l2.057-9.82c.047-.233-.187-.467-.42-.374L5.61 11.617c-.28.093-.28.514 0 .608Zm3.695.514 5.424-3.32c.093-.047.187.094.093.14l-4.442 4.162c-.14.14-.28.327-.28.561l-.14 1.122c0 .14-.235.187-.281 0l-.562-2.057c-.14-.234-.046-.514.188-.608Z" fill="#fff"/></symbol><symbol fill="none" viewBox="0 0 24 24" id="tool-case" xmlns="http://www.w3.org/2000/svg"><path d="M10 15h4m.817-4.005-.971-1.45 1.034-1.232a2 2 0 0 0-2.025-3.238l-1.82.364L9.91 3.885a2 2 0 0 0-3.625.748L6.141 6.55l-1.725.426a2 2 0 0 0-.19 3.756l.657.27m13.939-.007 2.26-5.38a1 1 0 0 0-.557-1.318L16.954 2.9a1 1 0 0 0-1.281.533l-.924 2.122M4 12.006A1 1 0 0 1 4.994 11H19a1 1 0 0 1 1 1v7a2 2 0 0 1-2 2H6a2 2 0 0 1-2-2v-6.994Z" stroke="currentColor" stroke-width="2" stroke-linecap="round" stroke-linejoin="round"/></symbol><symbol fill="none" viewBox="0 0 20 20" id="user" xmlns="http://www.w3.org/2000/svg"><path d="M16.667 17.5c0-1.163 0-1.745-.144-2.218a3.333 3.333 0 0 0-2.222-2.222c-.473-.143-1.055-.143-2.218-.143H7.917c-1.163 0-1.745 0-2.218.143a3.333 3.333 0 0 0-2.222 2.222c-.144.473-.144 1.055-.144 2.218M13.75 6.25a3.75 3.75 0 1 1-7.5 0 3.75 3.75 0 0 1 7.5 0Z" stroke="currentColor" stroke-linecap="round" stroke-linejoin="round"/></symbol><symbol fill="none" viewBox="0 0 24 24" id="users" xmlns="http://www.w3.org/2000/svg"><path d="M16 21v-2a4 4 0 0 0-4-4H6a4 4 0 0 0-4 4v2M16 3.128a4 4 0 0 1 0 7.744M22 21v-2a4 4 0 0 0-3-3.87M13 7a4 4 0 1 1-8 0 4 4 0 0 1 8 0Z" stroke="currentColor" stroke-width="2" stroke-linecap="round" stroke-linejoin="round"/></symbol><symbol fill="none" viewBox="0 0 421 206" id="vector-desktop" xmlns="http://www.w3.org/2000/svg"><path d="M420.707 126.984a1 1 0 0 0 0-1.415l-6.364-6.364a1 1 0 0 0-1.414 1.415l5.657 5.656-5.657 5.657a1 1 0 1 0 1.414 1.415l6.364-6.364ZM78.919 1V0H37v2h41.92V1ZM1 37H0v132h2V37H1Zm36 168v1h300.444v-2H37v1Zm336.444-36h1v-6.724h-2V169h1Zm36-42.724v1H420v-2h-10.556v1Zm-36 36h1c0-19.33 15.671-35 35-35v-2c-20.434 0-37 16.566-37 37h1Zm-36 42.724v1c20.435 0 37-16.565 37-37h-2c0 19.33-15.67 35-35 35v1ZM1 169H0c0 20.435 16.566 37 37 37v-2c-19.33 0-35-15.67-35-35H1ZM37 1V0C16.566 0 0 16.566 0 37h2C2 17.67 17.67 2 37 2V1Z" fill="currentColor"/></symbol><symbol fill="none" viewBox="0 0 372 187" id="vector-mobile" xmlns="http://www.w3.org/2000/svg"><path d="M310.774 178.293a1 1 0 0 0 0 1.414l6.364 6.364a1 1 0 1 0 1.415-1.414L312.896 179l5.657-5.657a1 1 0 0 0-1.415-1.414l-6.364 6.364ZM78.408 1V0H25v2h53.408V1ZM1 25H0v94.127h2V25H1Zm24 118.127v1h328.064v-2H25v1ZM353.064 179v-1h-41.582v2h41.582v-1ZM371 161.064h-1c0 9.353-7.583 16.936-16.936 16.936v2c10.458 0 18.936-8.478 18.936-18.936h-1Zm-17.936-17.937v1c9.353 0 16.936 7.583 16.936 16.937h2c0-10.459-8.478-18.937-18.936-18.937v1ZM1 119.127H0c0 13.807 11.193 25 25 25v-2c-12.703 0-23-10.297-23-23H1ZM25 1V0C11.193 0 0 11.193 0 25h2C2 12.297 12.297 2 25 2V1Z" fill="currentColor"/></symbol><symbol fill="none" viewBox="0 0 222 235" id="vector-tablet" xmlns="http://www.w3.org/2000/svg"><path d="M221.707 144.792a.999.999 0 0 0 0-1.414l-6.364-6.364a1 1 0 0 0-1.414 1.414l5.657 5.657-5.657 5.657a.999.999 0 1 0 1.414 1.414l6.364-6.364ZM41.912 1V0H25v2h16.912V1ZM1 25H0v185h2V25H1Zm24 209v1h147.556v-2H25v1Zm171.556-24h1v-41.915h-2V210h1Zm24-65.915v1H221v-2h-.444v1Zm-24 24h1c0-12.702 10.297-23 23-23v-2c-13.808 0-25 11.193-25 25h1Zm-24 65.915v1c13.807 0 25-11.193 25-25h-2c0 12.703-10.298 23-23 23v1ZM1 210H0c0 13.807 11.193 25 25 25v-2c-12.703 0-23-10.297-23-23H1ZM25 1V0C11.193 0 0 11.193 0 25h2C2 12.297 12.297 2 25 2V1Z" fill="currentColor"/></symbol><symbol fill="none" viewBox="0 0 24 24" id="vk" xmlns="http://www.w3.org/2000/svg"><circle cx="12" cy="12" r="12" fill="#7294C7"/><path d="M17.884 15.07c0-.05-.05-.05-.05-.1-.2-.399-.648-.897-1.245-1.445-.3-.249-.449-.448-.548-.548-.15-.199-.15-.348-.1-.548.05-.149.25-.398.598-.846.199-.25.299-.399.448-.548.747-.997 1.096-1.644.996-1.943l-.05-.05c-.05-.05-.1-.1-.199-.1-.1-.05-.249-.05-.398 0h-2.242l-.05.05c-.05.05-.05.05-.05.1-.199.548-.448.996-.697 1.494-.15.25-.299.498-.448.698-.15.199-.25.348-.349.448-.1.1-.2.15-.249.25-.05.049-.15.099-.15.049-.05 0-.099 0-.099-.05l-.15-.15c-.05-.05-.05-.149-.1-.248V9.09c0-.049-.049-.149-.049-.198l-.15-.15c-.05-.05-.149-.05-.199-.1-.249-.05-.547-.1-.896-.1-.797.001-1.345.05-1.544.15-.1.05-.2.1-.25.2-.1.1-.1.15-.05.15.25.049.449.149.549.298l.05.1c.05.05.05.149.099.298.05.15.05.3.05.499v.797c0 .249-.05.398-.05.548 0 .149-.05.249-.1.299-.05.1-.05.149-.1.149 0 0 0 .05-.049.05-.05 0-.1.05-.2.05-.05 0-.149-.05-.199-.1a.6.6 0 0 1-.249-.25c-.1-.099-.199-.248-.298-.447-.1-.2-.25-.399-.35-.698l-.099-.2c-.05-.099-.15-.298-.249-.547-.1-.25-.2-.448-.299-.697-.05-.1-.1-.15-.15-.2h-.049s-.05-.05-.1-.05-.1-.05-.15-.05H5.88c-.2 0-.3.05-.35.1l-.049.05v.1c0 .05 0 .1.05.199.249.598.548 1.196.847 1.793.299.548.598 1.046.797 1.395.249.349.448.697.697.996.25.3.399.498.448.598l.2.2.15.149c.099.1.248.249.448.398.199.15.448.3.697.449.249.15.548.249.847.348.348.1.647.15.946.1h.747c.15 0 .25-.05.35-.15l.049-.05c0-.05.05-.05.05-.099v-.2c0-.199 0-.348.05-.497.05-.15.05-.25.1-.349.049-.1.099-.15.149-.2l.1-.099h.049c.1-.05.25 0 .349.1.15.1.299.249.398.398.1.15.25.3.449.498.199.2.348.35.448.399l.15.1c.099.05.199.1.348.149.15.05.25.05.349.05l1.693-.05c.15 0 .3-.05.399-.1.1-.05.15-.1.15-.199v-.2c-.1-.099-.1-.149-.1-.199Z" fill="#fff"/></symbol><symbol fill="none" viewBox="0 0 24 24" id="waves" xmlns="http://www.w3.org/2000/svg"><path d="M2 6c.6.5 1.2 1 2.5 1C7 7 7 5 9.5 5c2.6 0 2.4 2 5 2 2.5 0 2.5-2 5-2 1.3 0 1.9.5 2.5 1M2 12c.6.5 1.2 1 2.5 1 2.5 0 2.5-2 5-2 2.6 0 2.4 2 5 2 2.5 0 2.5-2 5-2 1.3 0 1.9.5 2.5 1M2 18c.6.5 1.2 1 2.5 1 2.5 0 2.5-2 5-2 2.6 0 2.4 2 5 2 2.5 0 2.5-2 5-2 1.3 0 1.9.5 2.5 1" stroke="currentColor" stroke-width="2" stroke-linecap="round" stroke-linejoin="round"/></symbol><symbol fill="none" viewBox="0 0 24 24" id="whatsapp" xmlns="http://www.w3.org/2000/svg"><circle cx="12" cy="12" r="12" fill="#84CC16"/><path d="M16.756 7.238A6.257 6.257 0 0 0 12.322 5.4c-3.468 0-6.278 2.8-6.278 6.257 0 1.093.307 2.187.834 3.106L6 18l3.337-.875a6.42 6.42 0 0 0 2.985.744c3.468 0 6.278-2.8 6.278-6.256-.044-1.619-.659-3.194-1.844-4.375Zm-1.405 6.65c-.132.35-.746.7-1.053.744a2.461 2.461 0 0 1-.966-.044c-.22-.088-.527-.175-.878-.35-1.58-.656-2.59-2.231-2.678-2.363-.088-.087-.659-.83-.659-1.618 0-.788.395-1.138.527-1.313.132-.175.307-.175.439-.175h.307c.088 0 .22-.044.351.263.132.306.44 1.093.483 1.137a.278.278 0 0 1 0 .263.915.915 0 0 1-.175.262c-.088.088-.176.219-.22.263-.088.087-.175.175-.088.306.088.175.396.656.879 1.094.614.525 1.097.7 1.273.787.175.088.263.044.35-.044.089-.087.396-.437.484-.612.088-.175.22-.131.351-.088.132.044.922.438 1.054.525.175.088.263.132.307.175.044.132.044.438-.088.788Z" fill="#fff"/></symbol><symbol fill="none" viewBox="0 0 24 24" id="youtube" xmlns="http://www.w3.org/2000/svg"><circle cx="12" cy="12" r="12" fill="#F40000"/><path d="M17.228 11.348c0-.232-.039-.504-.039-.814-.039-.31-.078-.62-.116-.892-.078-.31-.194-.543-.427-.737a1.31 1.31 0 0 0-.737-.35c-.892-.116-2.21-.155-3.995-.155-1.784 0-3.142.04-3.995.156a1.31 1.31 0 0 0-.737.349c-.194.194-.35.426-.427.737a3.11 3.11 0 0 0-.116.892c-.039.31-.039.582-.039.814V13.133c0 .232.039.504.039.814.039.31.077.62.116.892.078.31.194.543.427.737.194.194.465.31.737.35.892.116 2.21.154 3.995.154 1.784 0 3.142-.038 3.995-.155a1.31 1.31 0 0 0 .737-.349c.194-.194.35-.427.427-.737.077-.271.116-.543.116-.892.039-.31.039-.582.039-.814V11.348Zm-3.258 1.203-3.065 1.9a.296.296 0 0 1-.194.078c-.077 0-.116 0-.193-.039a.407.407 0 0 1-.194-.349v-3.84c0-.155.077-.271.194-.35a.352.352 0 0 1 .387 0l3.065 1.901c.116.078.194.194.194.31 0 .117-.078.311-.194.389Z" fill="#fff"/></symbol></svg>